<?xml version="1.0" standalone="no"?>
<!DOCTYPE svg PUBLIC "-//W3C//DTD SVG 20010904//EN"
 "http://www.w3.org/TR/2001/REC-SVG-20010904/DTD/svg10.dtd">
<svg version="1.0" xmlns="http://www.w3.org/2000/svg"
 width="1280.000000pt" height="1113.000000pt" viewBox="0 0 1280.000000 1113.000000"
 preserveAspectRatio="xMidYMid meet">
<metadata>
Created by potrace 1.15, written by Peter Selinger 2001-2017
</metadata>
<g transform="translate(0.000000,1113.000000) scale(0.100000,-0.100000)"
fill="#000000" stroke="none">
<path d="M1970 10553 c-312 -22 -590 -95 -848 -223 -227 -113 -406 -243 -568
-412 -277 -290 -445 -620 -526 -1033 l-22 -110 -4 -2475 c-2 -1753 0 -2507 8
-2585 23 -234 80 -436 180 -644 314 -649 959 -1083 1710 -1151 88 -8 623 -10
1821 -8 l1697 3 -367 457 -366 457 -980 2 c-539 0 -1167 4 -1395 9 -394 7
-420 9 -520 33 -412 99 -705 348 -820 697 -52 161 -51 67 -47 2707 3 2320 4
2452 21 2523 57 236 145 393 306 543 159 147 362 241 630 288 88 16 4680 25
4850 10 151 -14 253 -41 376 -101 308 -149 524 -424 611 -778 14 -59 17 -186
22 -1070 l6 -1003 457 448 457 448 1 525 c0 289 -5 575 -10 635 -66 696 -485
1302 -1112 1608 -213 104 -469 175 -713 197 -99 9 -4731 12 -4855 3z"/>
<path d="M10255 8577 c-669 -648 -1453 -1403 -1784 -1717 -107 -102 -704 -687
-1325 -1300 -622 -614 -1167 -1150 -1212 -1193 l-81 -77 -214 116 c-1680 909
-2322 1255 -2325 1252 -4 -4 316 -453 1786 -2501 887 -1236 895 -1247 912
-1224 14 17 18 19 18 6 0 -26 67 -79 99 -79 16 0 41 10 56 22 16 12 85 108
153 213 69 104 214 325 322 490 108 165 317 485 465 710 363 555 493 749 730
1090 247 356 793 1149 977 1420 75 110 212 311 304 447 93 136 255 374 359
528 105 154 237 349 294 433 226 331 671 1000 755 1132 95 150 186 316 186
340 0 27 -34 15 -97 -34 -75 -57 -197 -172 -236 -221 -45 -57 109 180 313 482
105 154 189 282 188 283 -2 1 -291 -277 -643 -618z"/>
</g>
</svg>
